<?xml version="1.0" encoding="UTF-8" standalone="no"?>
<svg
   xmlns:dc="http://purl.org/dc/elements/1.1/"
   xmlns:cc="http://creativecommons.org/ns#"
   xmlns:rdf="http://www.w3.org/1999/02/22-rdf-syntax-ns#"
   xmlns:svg="http://www.w3.org/2000/svg"
   xmlns="http://www.w3.org/2000/svg"
   xmlns:sodipodi="http://sodipodi.sourceforge.net/DTD/sodipodi-0.dtd"
   xmlns:inkscape="http://www.inkscape.org/namespaces/inkscape"
   width="48"
   height="48"
   viewBox="0 0 48 48"
   version="1.1"
   id="svg19"
   sodipodi:docname="logo-mini.svg"
   inkscape:version="1.0.1 (3bc2e813f5, 2020-09-07)">
  <metadata
     id="metadata23">
    <rdf:RDF>
      <cc:Work
         rdf:about="">
        <dc:format>image/svg+xml</dc:format>
        <dc:type
           rdf:resource="http://purl.org/dc/dcmitype/StillImage" />
        <dc:title></dc:title>
      </cc:Work>
    </rdf:RDF>
  </metadata>
  <sodipodi:namedview
     pagecolor="#ffffff"
     bordercolor="#666666"
     borderopacity="1"
     objecttolerance="10"
     gridtolerance="10"
     guidetolerance="10"
     inkscape:pageopacity="0"
     inkscape:pageshadow="2"
     inkscape:window-width="1920"
     inkscape:window-height="1000"
     id="namedview21"
     showgrid="false"
     inkscape:zoom="5.9956763"
     inkscape:cx="12.41624"
     inkscape:cy="52.35289"
     inkscape:window-x="-11"
     inkscape:window-y="-11"
     inkscape:window-maximized="1"
     inkscape:current-layer="svg19" />
  <defs
     id="defs4">
    <path
       id="a"
       d="M6 8c-1.1 0-2 .9-2 2s.9 2 2 2 2-.9 2-2-.9-2-2-2zM2 4C.9 4 0 4.9 0 6s.9 2 2 2 2-.9 2-2-.9-2-2-2zm0 8c-1.1 0-2 .9-2 2s.9 2 2 2 2-.9 2-2-.9-2-2-2zm12-8c1.1 0 2-.9 2-2s-.9-2-2-2-2 .9-2 2 .9 2 2 2zm-4 8c-1.1 0-2 .9-2 2s.9 2 2 2 2-.9 2-2-.9-2-2-2zm4-4c-1.1 0-2 .9-2 2s.9 2 2 2 2-.9 2-2-.9-2-2-2zm-4-4c-1.1 0-2 .9-2 2s.9 2 2 2 2-.9 2-2-.9-2-2-2zM6 0C4.9 0 4 .9 4 2s.9 2 2 2 2-.9 2-2-.9-2-2-2z" />
    <path
       id="c"
       d="M0 0h50v50H0z" />
    <clipPath
       id="p.0">
      <path
         d="M 0,0 H 496.55118 V 468.4147 H 0 Z"
         clip-rule="nonzero"
         id="path2" />
    </clipPath>
  </defs>
  <g
     clip-path="url(#p.0)"
     id="g31"
     transform="matrix(0.09813383,0,0,0.10484842,0.2730465,0.11147019)">
    <path
       fill="#000000"
       fill-opacity="0"
       d="M 0,0 H 496.55118 V 468.4147 H 0 Z"
       fill-rule="evenodd"
       id="path5" />
    <path
       fill="#ffffff"
       d="m 24.817585,97.103775 v 0 c 0,-39.00281 31.618027,-70.620834 70.620834,-70.620834 H 409.37784 c 18.72983,0 36.6925,7.44039 49.93649,20.684366 13.24396,13.243973 20.68436,31.206657 20.68436,49.93647 V 379.57863 c 0,39.0028 -31.61801,70.62082 -70.62085,70.62082 H 95.438419 c -39.00281,0 -70.620834,-31.61801 -70.620834,-70.62082 z"
       fill-rule="evenodd"
       id="path7" />
    <path
       fill="#1c4587"
       d="m 68.59897,89.16822 c -2.334763,0 -4.745827,0.495949 -7.233185,1.487846 -2.48737,0.976632 -4.906071,2.311867 -7.256081,4.005722 -4.684795,3.64711 -7.027179,9.270382 -7.027179,16.869812 v 40.08011 c 0,3.75394 0.610401,7.06532 1.831184,9.93419 1.220787,2.85359 2.952789,5.21889 5.195995,7.09586 4.700039,3.55555 9.529797,5.33332 14.489265,5.33332 h 23.622314 c 4.974732,0 9.949467,-1.77777 14.924177,-5.33332 5.05102,-3.66239 7.57654,-9.33907 7.57654,-17.03005 v -6.61517 c 0,-4.39484 -2.5713,-6.59227 -7.71387,-6.59227 -5.15786,0 -7.736775,2.19743 -7.736775,6.59227 v 6.47783 c 0,2.24321 -0.732476,4.34907 -2.197426,6.31759 -1.449692,1.96852 -3.90654,2.95279 -7.370522,2.95279 H 72.124008 c -3.464005,0 -5.928467,-0.98427 -7.393418,-2.95279 -1.449684,-1.96852 -2.174538,-4.07438 -2.174538,-6.31759 v -39.80543 c 0,-2.33476 0.724854,-4.46352 2.174538,-6.38627 1.464951,-1.92275 3.929413,-2.88412 7.393418,-2.88412 h 17.579399 c 3.463998,0 5.920845,0.96137 7.370522,2.88412 1.464951,1.92275 2.197426,4.05151 2.197426,6.38627 v 6.04291 c 0,4.50167 2.578915,6.75251 7.736775,6.75251 5.14257,0 7.71387,-2.25084 7.71387,-6.75251 v -7.02717 c 0,-3.8455 -0.67906,-7.17215 -2.0372,-9.97998 -1.35813,-2.807819 -3.15879,-5.012874 -5.402,-6.615162 -2.35002,-1.495468 -4.88316,-2.685737 -7.599427,-3.570816 -2.716256,-0.900329 -5.203614,-1.350502 -7.46209,-1.350502 z"
       fill-rule="evenodd"
       id="path9" />
    <path
       fill="#1c4587"
       d="m 154.53345,89.305565 c -5.99715,0 -11.29233,1.503097 -15.88556,4.5093 -4.59322,3.006195 -6.88983,8.347155 -6.88983,16.022875 v 58.23176 c 0,4.50167 2.67047,6.75251 8.01144,6.75251 5.15784,0 7.73676,-2.25084 7.73676,-6.75251 v -58.09441 c 0,-2.33476 0.51121,-4.15832 1.53363,-5.47067 1.03767,-1.31235 3.24274,-1.96853 6.61516,-1.96853 h 14.90129 c 3.66237,0 5.40199,-2.20505 5.21887,-6.615158 0,-4.410118 -1.73962,-6.615166 -5.21887,-6.615166 z"
       fill-rule="evenodd"
       id="path11" />
    <path
       fill="#1c4587"
       d="m 189.68617,88.3213 c -1.02242,0 -2.38054,0.236526 -4.07439,0.709587 -2.24321,0.747734 -3.90654,1.922745 -4.98999,3.52504 -1.08345,1.587021 -1.25129,3.509773 -0.50357,5.768234 v -0.160225 l 27.44492,71.874094 -0.70958,2.24321 -1.96854,5.21888 c -1.03766,1.96852 -3.19693,2.95279 -6.47781,2.95279 h -6.18027 c -3.46399,0 -5.19598,2.19742 -5.19598,6.59227 0.18312,4.4101 1.91511,6.61516 5.19598,6.61516 h 7.30187 c 3.09776,0 5.81401,-0.30521 8.14878,-0.91559 2.35003,-0.6104 4.31855,-1.41154 5.90558,-2.40344 1.60228,-0.97662 2.89174,-2.00667 3.86838,-3.09012 0.9919,-1.06819 1.72437,-2.12112 2.19742,-3.1588 4.21173,-14.25274 8.49977,-28.64282 12.86409,-43.17024 4.36433,-14.52742 8.65236,-28.96328 12.86409,-43.307569 0.56462,-2.060089 0.35098,-3.837868 -0.64092,-5.333336 -0.97662,-1.510727 -2.58654,-2.594177 -4.82974,-3.250358 -1.69386,-0.473061 -2.91464,-0.709588 -3.66238,-0.709588 -3.09775,0 -5.06629,1.686226 -5.90558,5.058655 l -15.06151,50.494986 -9.40773,-23.05006 -11.12446,-27.7196 c -0.65618,-3.189315 -2.3424,-4.783981 -5.05866,-4.78398 z"
       fill-rule="evenodd"
       id="path13" />
    <path
       fill="#1c4587"
       d="m 266.05304,89.305565 c -2.44156,0 -4.50928,0.564613 -6.20313,1.693848 -1.67858,1.129226 -2.51788,3.334282 -2.51788,6.615165 v 89.293262 c 0,4.50166 2.57892,6.7525 7.73676,6.7525 5.15783,0 7.73678,-2.20506 7.73678,-6.61516 v -84.50929 h 27.01001 c 0.2963,-0.0153 0.58527,-0.0229 0.86695,-0.0229 3.09839,0 5.31201,0.92323 6.6409,2.76967 1.46496,2.01431 2.19744,4.18885 2.19744,6.52361 v 39.66809 c 0,2.24321 -0.73248,4.34907 -2.19744,6.31759 -1.44968,1.96853 -3.90653,2.95279 -7.37052,2.95279 h -14.2146 c -3.55554,0 -5.33331,2.20507 -5.33331,6.61516 0.1831,4.41011 1.96088,6.61518 5.33331,6.61518 h 16.73249 c 4.79159,0 9.8121,-1.68622 15.06152,-5.05866 4.95944,-3.28088 7.43918,-8.76681 7.43918,-16.45779 v -41.63662 c 0,-3.8455 -0.67905,-7.19504 -2.0372,-10.04864 -1.35813,-2.853608 -3.15879,-5.081551 -5.40198,-6.683838 -2.62473,-1.495469 -5.18076,-2.66285 -7.66812,-3.502144 -2.48737,-0.854554 -4.95185,-1.28183 -7.39341,-1.28183 z"
       fill-rule="evenodd"
       id="path15" />
    <path
       fill="#1c4587"
       d="m 353.24646,67.514435 c -5.34097,0 -8.01144,2.250839 -8.01144,6.752502 v 15.038628 h -5.49356 c -3.55555,0 -5.33332,2.205048 -5.33332,6.615166 0.18311,4.410109 1.96088,6.615159 5.33332,6.615159 h 5.49356 v 51.31902 c 0,7.69099 2.29663,13.03958 6.88986,16.04579 v -0.13735 c 2.44156,1.49547 4.9747,2.63997 7.59942,3.43347 2.6247,0.79352 5.4325,1.19028 8.42347,1.19028 h 4.64663 c 3.47925,0 5.21888,-2.19743 5.21888,-6.59227 0.1831,-4.31856 -1.55652,-6.47783 -5.21888,-6.47783 h -3.66238 c -3.37244,0 -5.57752,-0.65617 -6.61517,-1.96853 -1.0224,-1.31235 -1.5336,-3.18932 -1.5336,-5.63089 v -51.18169 h 11.67379 c 3.46402,0 5.19602,-2.20505 5.19602,-6.615158 0.19836,-4.410118 -1.53363,-6.615166 -5.19602,-6.615166 H 360.98325 V 74.266938 c 0,-4.501663 -2.57892,-6.752502 -7.73679,-6.752503 z"
       fill-rule="evenodd"
       id="path17" />
    <path
       fill="#1c4587"
       d="m 432.71576,102.53589 c 3.46402,0 5.92084,0.96137 7.37054,2.88412 1.46494,1.92275 2.19742,4.0515 2.19742,6.38627 v 39.66809 c 0,2.24321 -0.73248,4.34907 -2.19742,6.31759 -1.4497,1.96852 -3.90655,2.95279 -7.37054,2.95279 h -17.44205 c -3.46399,0 -5.92846,-0.98427 -7.39343,-2.95279 -1.44968,-1.96852 -2.17453,-4.07438 -2.17453,-6.31759 v -39.66809 c 0,-2.33477 0.72485,-4.46352 2.17453,-6.38627 1.46497,-1.92275 3.92944,-2.88412 7.39343,-2.88412 z M 412.73294,89.305566 c -2.42633,0 -4.95947,0.518837 -7.59943,1.556511 -2.62469,1.022407 -5.10443,2.334763 -7.4392,3.93705 h 0.13732 c -2.44155,1.785408 -4.31854,4.104912 -5.63089,6.958513 -1.31234,2.8536 -1.96853,6.15736 -1.96853,9.9113 v 39.94277 c 0,7.78255 2.53314,13.45923 7.59942,17.03005 2.44159,1.86171 4.92896,3.21983 7.4621,4.07438 2.53314,0.8393 5.01288,1.25894 7.43921,1.25894 h 22.5007 c 4.97473,0 9.94943,-1.77777 14.9242,-5.33332 5.05102,-3.66239 7.57653,-9.33907 7.57653,-17.03005 v -39.94277 c 0,-3.75394 -0.65618,-7.0577 -1.96853,-9.9113 -1.31235,-2.853601 -3.1817,-5.173105 -5.608,-6.958513 h 0.13733 c -2.44159,-1.602287 -4.95185,-2.914642 -7.53077,-3.93705 -2.57891,-1.037674 -5.08917,-1.556511 -7.53076,-1.556511 z"
       fill-rule="evenodd"
       id="path19" />
    <path
       fill="#38761d"
       d="m 97.00093,280.14374 c -6.135849,0 -11.310654,1.92041 -15.524429,5.76117 -4.195297,3.8193 -7.651329,10.34219 -10.368103,19.5686 v -15.64199 c 0,-2.23151 -0.628365,-4.09827 -1.885109,-5.60025 -1.238258,-1.52341 -3.335899,-2.28513 -6.292942,-2.28513 -2.846142,0 -4.897583,0.76172 -6.154327,2.28513 -1.238255,1.50198 -1.857388,3.36874 -1.857388,5.60025 v 65.27161 c 0,2.2315 0.646854,4.10897 1.940552,5.63238 1.312191,1.52347 3.4468,2.28516 6.403828,2.28516 3.06792,0 5.248729,-0.76169 6.542438,-2.28516 1.312195,-1.52344 1.968277,-3.40091 1.968277,-5.63238 v -18.37778 c 0,-6.20099 0.56369,-12.03726 1.691055,-17.50876 1.145859,-5.47147 2.624375,-10.21344 4.435555,-14.22586 1.829666,-4.03388 3.844139,-7.23093 6.043442,-9.59119 2.217773,-2.38171 4.463272,-3.57254 6.736488,-3.57254 2.624367,0 4.527954,1.28739 5.710778,3.86221 1.201301,2.57483 1.80194,7.0915 1.80194,13.54996 v 45.86395 c 0,2.23151 0.646859,4.10898 1.940555,5.63239 1.31219,1.52347 3.4468,2.28516 6.40383,2.28516 3.06792,0 5.24872,-0.76169 6.54244,-2.28516 1.31219,-1.52344 1.96828,-3.40091 1.96828,-5.63239 v -18.18466 c 0,-6.45849 0.59141,-12.42349 1.77421,-17.89496 1.20131,-5.47149 2.763,-10.21347 4.68505,-14.22589 1.94056,-4.03387 4.13061,-7.19873 6.57016,-9.49463 2.43956,-2.31732 4.96228,-3.47598 7.56817,-3.47598 7.2817,0 10.92254,6.72669 10.92254,20.18012 0,3.8193 -0.28645,7.77807 -0.85939,11.87634 -0.57292,4.07678 -1.3399,7.96045 -2.30093,11.65103 -0.96103,3.69058 -2.04221,7.04859 -3.2435,10.07398 -1.18282,3.02542 -2.40259,5.53585 -3.65933,7.53134 -0.90558,1.30887 -1.50623,2.32806 -1.80195,3.05761 -0.27722,0.72953 -0.41583,1.41614 -0.41583,2.05985 0,1.33032 0.53597,2.58554 1.6079,3.76566 1.09041,1.18011 2.37486,1.7702 3.85338,1.7702 1.12736,0 2.19928,-0.20386 3.21577,-0.61151 1.03496,-0.38623 2.17157,-1.29816 3.40984,-2.73575 2.62435,-3.02542 5.03619,-6.74817 7.23548,-11.16828 2.21778,-4.4201 4.1491,-9.09768 5.79395,-14.03274 1.66333,-4.95654 2.97551,-9.90231 3.93655,-14.8374 0.96103,-4.95652 1.44155,-9.47318 1.44155,-13.54996 0,-3.69058 -0.45279,-7.14511 -1.35839,-10.36365 -0.90559,-3.23999 -2.27322,-6.083 -4.10289,-8.52908 -1.81117,-2.44608 -4.11212,-4.35571 -6.90281,-5.72897 -2.77223,-1.39469 -6.08965,-2.09204 -9.95227,-2.09204 -6.13587,0 -11.42156,1.78091 -15.8571,5.34274 -4.41708,3.56186 -8.44605,9.49466 -12.08689,17.79843 -0.22178,-7.50989 -1.86663,-13.23883 -4.93455,-17.18689 -3.06792,-3.96951 -7.26322,-5.95428 -12.58588,-5.95428 z"
       fill-rule="evenodd"
       id="path21" />
    <path
       fill="#38761d"
       d="m 233.94522,291.827 c 5.32266,0 9.54567,1.74872 12.66905,5.24619 3.12337,3.49746 4.68505,8.14285 4.68505,13.93618 0,4.99945 -0.94256,9.80576 -2.82767,14.41898 -1.86662,4.61322 -4.36162,8.70074 -7.48499,12.26257 -3.10489,3.56183 -6.76422,6.43704 -10.97799,8.62564 -4.1953,2.16712 -8.67705,3.25071 -13.44527,3.25071 -5.56293,0 -9.85062,-1.67365 -12.8631,-5.02091 -3.01248,-3.36871 -4.51872,-8.15356 -4.51872,-14.35461 0,-4.89215 0.87787,-9.64481 2.6336,-14.25803 1.77424,-4.61322 4.22303,-8.69003 7.34639,-12.23038 3.12337,-3.56186 6.7827,-6.42633 10.97799,-8.59347 4.19529,-2.1886 8.79718,-3.28287 13.80566,-3.28287 z m 5.96027,-11.68326 c -7.83614,0 -15.30265,1.68436 -22.39954,5.0531 -7.09688,3.36872 -13.37134,7.78882 -18.82336,13.26029 -5.45205,5.47149 -9.76748,11.60815 -12.94628,18.40994 -3.17882,6.78036 -4.76822,13.5929 -4.76822,20.43762 0,8.0463 2.29171,14.40824 6.87511,19.08582 4.60188,4.67761 12.07764,7.01638 22.42726,7.01638 7.81766,0 15.19176,-1.97402 22.12231,-5.92208 6.93056,-3.96952 12.95551,-9.31226 18.07488,-16.02823 v 13.26031 c 0,2.23151 0.64685,4.10898 1.94055,5.63242 1.31218,1.50195 3.50224,2.25296 6.57016,2.25296 2.93857,0 5.06394,-0.75101 6.3761,-2.25296 1.3122,-1.52344 1.96829,-3.40091 1.96829,-5.63242 v -37.39923 c 0,-1.84527 0.30493,-3.88367 0.91483,-6.11517 0.62839,-2.23151 0.94256,-4.47376 0.94256,-6.72672 0,-7.25241 -2.32867,-13.12082 -6.98599,-17.60531 -4.63885,-4.48447 -12.0684,-6.72672 -22.28866,-6.72672 z"
       fill-rule="evenodd"
       id="path23" />
    <path
       fill="#38761d"
       d="m 299.8406,238.81793 c -3.40057,0 -5.89557,0.8261 -7.48499,2.47827 -1.58941,1.65216 -2.38409,3.59401 -2.38409,5.82552 v 7.53134 c 0,2.23152 0.79468,4.17335 2.38409,5.82551 1.58942,1.6522 4.08442,2.47828 7.48499,2.47828 3.2897,0 5.75699,-0.82608 7.40186,-2.47828 1.66333,-1.65216 2.49499,-3.59399 2.49499,-5.82551 v -7.53134 c 0,-2.23151 -0.83166,-4.17334 -2.49499,-5.82552 -1.64487,-1.65217 -4.11216,-2.47827 -7.40186,-2.47827 z m 0,42.13046 c -2.93854,0 -5.09161,0.76172 -6.45926,2.28513 -1.36761,1.50198 -2.05145,3.37945 -2.05145,5.63241 v 65.85095 c 0,2.23151 0.68384,4.10898 2.05145,5.63242 1.36765,1.50195 3.52072,2.25296 6.45926,2.25296 3.06793,0 5.28571,-0.75101 6.65335,-2.25296 1.36762,-1.52344 2.05142,-3.40091 2.05142,-5.63242 v -65.85095 c 0,-2.25296 -0.6838,-4.13043 -2.05142,-5.63241 -1.36764,-1.52341 -3.58542,-2.28513 -6.65335,-2.28513 z"
       fill-rule="evenodd"
       id="path25" />
    <path
       fill="#38761d"
       d="m 340.88898,221.82414 c -2.93857,0 -5.09164,0.76172 -6.45929,2.28516 -1.36761,1.50196 -2.05142,3.37944 -2.05142,5.63241 v 124.97518 c 0,2.2315 0.68381,4.10897 2.05142,5.63241 1.36765,1.50196 3.52072,2.25296 6.45929,2.25296 3.06793,0 5.28571,-0.751 6.65332,-2.25296 1.36761,-1.52344 2.05145,-3.40091 2.05145,-5.63241 V 229.74171 c 0,-2.25297 -0.68384,-4.13045 -2.05145,-5.63241 -1.36761,-1.52344 -3.58539,-2.28516 -6.65332,-2.28516 z"
       fill-rule="evenodd"
       id="path27" />
    <path
       fill="#38761d"
       d="m 402.03592,280.14374 c -1.12738,0 -2.18082,0.20386 -3.16034,0.61154 -0.96103,0.3862 -2.06067,1.30887 -3.29895,2.76792 -3.75174,3.8193 -7.21701,8.03558 -10.39581,12.6488 -3.17881,4.61319 -5.87711,9.29077 -8.09488,14.03274 -2.21777,4.74195 -3.95505,9.46244 -5.21176,14.1615 -1.23828,4.67759 -1.85739,8.99039 -1.85739,12.93845 0,7.50989 2.57815,13.74307 7.73449,18.69961 5.17481,4.93506 12.92777,7.40259 23.25891,7.40259 8.40909,0 15.93103,-2.16714 22.56589,-6.5014 6.65332,-4.35574 12.30866,-10.95371 16.96597,-19.79392 v 31.02655 c 0,5.94352 -0.91482,11.38282 -2.7445,16.31791 -1.81119,4.95651 -4.3339,9.17279 -7.56815,12.64877 -3.23425,3.49747 -7.04144,6.23321 -11.42154,8.20724 -4.36163,1.99549 -9.15759,2.99323 -14.38785,2.99323 -3.51147,0 -6.32064,-0.49353 -8.42755,-1.48053 -2.10687,-0.987 -3.78869,-2.21005 -5.04544,-3.6691 -1.23825,-1.45908 -2.19928,-3.01471 -2.88308,-4.66687 -0.66535,-1.63071 -1.33991,-3.1756 -2.02375,-4.63467 -0.68381,-1.43759 -1.57089,-2.66065 -2.66131,-3.6691 -1.07193,-0.98703 -2.62436,-1.48053 -4.65732,-1.48053 -2.38413,0 -4.40784,1.08356 -6.07117,3.2507 -1.64487,2.1886 -2.46728,5.06381 -2.46728,8.62564 0,5.79334 2.35638,10.76059 7.06915,14.90177 4.71277,4.16262 11.7265,6.24392 21.04117,6.24392 8.29818,0 16.05114,-1.68435 23.25891,-5.05307 7.20779,-3.34729 13.47299,-7.72445 18.79565,-13.13159 5.34116,-5.4071 9.5734,-11.46866 12.69678,-18.18463 3.12335,-6.71597 4.68506,-13.44269 4.68506,-20.18015 0,-1.56631 -0.1756,-3.07904 -0.52674,-4.53808 -0.33267,-1.45908 -0.49899,-3.23999 -0.49899,-5.34277 v -65.46469 c 0,-2.23151 -0.6561,-4.09827 -1.96829,-5.60025 -1.2937,-1.52341 -3.41907,-2.28513 -6.3761,-2.28513 -3.04944,0 -5.23025,0.76172 -6.54245,2.28513 -1.31216,1.50198 -1.96826,3.36874 -1.96826,5.60025 v 17.41217 c 0,6.45849 -0.97028,12.39132 -2.91083,17.79843 -1.92209,5.40713 -4.44479,10.09542 -7.56818,14.06494 -3.12335,3.94806 -6.75497,7.04855 -10.8948,9.30151 -4.13986,2.23154 -8.42755,3.34729 -12.8631,3.34729 -5.45203,0 -9.6843,-1.68439 -12.69678,-5.0531 -2.99398,-3.36871 -4.49099,-8.47543 -4.49099,-15.32016 0,-2.63919 0.39737,-5.60022 1.19204,-8.88312 0.79471,-3.30432 1.89435,-6.76959 3.29895,-10.39581 1.42307,-3.62619 3.18805,-7.25238 5.29496,-10.8786 2.10687,-3.62622 4.5187,-7.15585 7.23547,-10.58893 0.90558,-1.05139 1.46927,-1.94186 1.69107,-2.67139 0.24023,-0.72952 0.36038,-1.41613 0.36038,-2.05984 0,-1.33032 -0.54519,-2.61774 -1.63562,-3.86224 -1.0719,-1.26593 -2.34713,-1.89893 -3.82565,-1.89893 z"
       fill-rule="evenodd"
       id="path29" />
  </g>
</svg>
