<svg version="1.1" viewBox="0.0 0.0 496.5511811023622 468.4146981627297" fill="none" stroke="none" stroke-linecap="square" stroke-miterlimit="10" xmlns:xlink="http://www.w3.org/1999/xlink" xmlns="http://www.w3.org/2000/svg"><clipPath id="p.0"><path d="m0 0l496.55118 0l0 468.4147l-496.55118 0l0 -468.4147z" clip-rule="nonzero"/></clipPath><g clip-path="url(#p.0)"><path fill="#000000" fill-opacity="0.0" d="m0 0l496.55118 0l0 468.4147l-496.55118 0z" fill-rule="evenodd"/><path fill="#ffffff" d="m24.817585 97.103775l0 0c0 -39.00281 31.618027 -70.620834 70.620834 -70.620834l313.93942 0c18.729828 0 36.692505 7.4403896 49.936493 20.684366c13.2439575 13.243973 20.684357 31.206657 20.684357 49.93647l0 282.47485c0 39.002808 -31.618011 70.62082 -70.62085 70.62082l-313.93942 0c-39.00281 0 -70.620834 -31.618011 -70.620834 -70.62082z" fill-rule="evenodd"/><path fill="#1c4587" d="m68.59897 89.16822c-2.3347626 0 -4.7458267 0.4959488 -7.233185 1.4878464c-2.4873695 0.97663116 -4.9060707 2.3118668 -7.2560806 4.005722c-4.6847954 3.64711 -7.0271797 9.270378 -7.0271797 16.869812l0 40.08011c0 3.7539368 0.61040115 7.065323 1.8311844 9.934189c1.220787 2.853592 2.9527893 5.2188873 5.1959953 7.0958557c4.700039 3.5555573 9.529797 5.3333282 14.489265 5.3333282l23.622314 0c4.9747314 0 9.949463 -1.777771 14.924179 -5.3333282c5.0510178 -3.662384 7.576538 -9.339066 7.576538 -17.030045l0 -6.6151733c0 -4.3948364 -2.5712967 -6.59227 -7.713875 -6.59227c-5.157852 0 -7.7367706 2.1974335 -7.7367706 6.59227l0 6.477829c0 2.2432098 -0.7324753 4.3490753 -2.1974258 6.3175964c-1.4496918 1.9685211 -3.90654 2.9527893 -7.3705215 2.9527893l-17.5794 0c-3.4640045 0 -5.928467 -0.9842682 -7.3934174 -2.9527893c-1.4496841 -1.9685211 -2.1745377 -4.0743866 -2.1745377 -6.3175964l0 -39.805428c0 -2.3347626 0.7248535 -4.463516 2.1745377 -6.3862686c1.4649506 -1.9227448 3.9294128 -2.8841171 7.3934174 -2.8841171l17.5794 0c3.463997 0 5.920845 0.9613724 7.3705215 2.8841171c1.4649506 1.9227524 2.1974258 4.051506 2.1974258 6.3862686l0 6.0429153c0 4.501671 2.5789185 6.7525024 7.7367706 6.7525024c5.142578 0 7.713875 -2.2508316 7.713875 -6.7525024l0 -7.027176c0 -3.8454971 -0.6790619 -7.1721497 -2.037201 -9.979973c-1.3581314 -2.8078232 -3.1587906 -5.0128784 -5.4020004 -6.6151657c-2.3500214 -1.4954681 -4.883156 -2.6857376 -7.5994263 -3.570816c-2.7162552 -0.9003296 -5.2036133 -1.350502 -7.4620895 -1.350502z" fill-rule="evenodd"/><path fill="#1c4587" d="m154.53345 89.305565c-5.9971466 0 -11.292328 1.5030975 -15.885559 4.5093c-4.593216 3.006195 -6.8898315 8.347153 -6.8898315 16.02288l0 58.23176c0 4.501663 2.6704712 6.7525024 8.011444 6.7525024c5.157837 0 7.7367554 -2.2508392 7.7367554 -6.7525024l0 -58.094414c0 -2.3347626 0.5112152 -4.158325 1.5336304 -5.4706726c1.037674 -1.3123474 3.2427368 -1.9685287 6.615158 -1.9685287l14.901291 0c3.6623688 0 5.401993 -2.2050476 5.218872 -6.615158c0 -4.410118 -1.739624 -6.6151657 -5.218872 -6.6151657z" fill-rule="evenodd"/><path fill="#1c4587" d="m189.68617 88.3213c-1.0224152 0 -2.380539 0.23652649 -4.0743866 0.7095871c-2.2432098 0.74773407 -3.90654 1.9227448 -4.98999 3.5250397c-1.0834503 1.5870209 -1.251297 3.5097733 -0.50357056 5.7682343l0 -0.16022491l27.444916 71.87409l-0.70957947 2.2432098l-1.9685364 5.2188873c-1.0376587 1.9685211 -3.19693 2.9527893 -6.4778137 2.9527893l-6.1802673 0c-3.4639893 0 -5.195984 2.1974182 -5.195984 6.59227c0.18312073 4.410095 1.9151154 6.615158 5.195984 6.615158l7.3018646 0c3.097763 0 5.8140106 -0.3052063 8.148788 -0.9155884c2.3500214 -0.61039734 4.3185425 -1.4115448 5.9055786 -2.4034424c1.6022797 -0.97662354 2.891739 -2.006668 3.8683777 -3.0901184c0.9918976 -1.0681915 1.7243652 -2.1211243 2.1974182 -3.1587982c4.211731 -14.252747 8.499771 -28.642822 12.86409 -43.170242c4.364334 -14.52742 8.652359 -28.96328 12.86409 -43.30757c0.564621 -2.060089 0.35098267 -3.8378677 -0.6409149 -5.333336c-0.97662354 -1.5107269 -2.5865479 -2.5941772 -4.8297424 -3.2503586c-1.6938629 -0.4730606 -2.9146423 -0.7095871 -3.662384 -0.7095871c-3.0977478 0 -5.066284 1.6862259 -5.9055786 5.058655l-15.061508 50.494987l-9.40773 -23.050064l-11.124466 -27.719597c-0.6561737 -3.1893158 -2.342392 -4.7839813 -5.058655 -4.7839813z" fill-rule="evenodd"/><path fill="#1c4587" d="m266.05304 89.305565c-2.4415588 0 -4.5092773 0.56461334 -6.203125 1.6938477c-1.6785889 1.1292267 -2.5178833 3.334282 -2.5178833 6.6151657l0 89.29326c0 4.501663 2.5789185 6.7525024 7.7367554 6.7525024c5.157837 0 7.736786 -2.2050629 7.736786 -6.615158l0 -84.50929l27.01001 0c0.29629517 -0.015258789 0.5852661 -0.022888184 0.86694336 -0.022888184c3.0983887 0 5.3120117 0.9232254 6.6408997 2.7696686c1.4649658 2.014305 2.1974487 4.188843 2.1974487 6.5236053l0 39.66809c0 2.2432098 -0.7324829 4.3490753 -2.1974487 6.3175964c-1.4496765 1.9685211 -3.9065247 2.9527893 -7.370514 2.9527893l-14.2146 0c-3.555542 0 -5.333313 2.2050629 -5.333313 6.615158c0.18310547 4.4101105 1.9608765 6.6151733 5.333313 6.6151733l16.732483 0c4.7915955 0 9.812103 -1.6862183 15.061523 -5.058655c4.959442 -3.2808838 7.4391785 -8.766815 7.4391785 -16.457794l0 -41.63662c0 -3.8454971 -0.67904663 -7.195038 -2.037201 -10.048637c-1.3581238 -2.8536072 -3.158783 -5.0815506 -5.4019775 -6.683838c-2.6247253 -1.4954681 -5.1807556 -2.6628494 -7.6681213 -3.5021439c-2.4873657 -0.8545532 -4.9518433 -1.2818298 -7.393402 -1.2818298z" fill-rule="evenodd"/><path fill="#1c4587" d="m353.24646 67.514435c-5.340973 0 -8.011444 2.2508392 -8.011444 6.7525024l0 15.038628l-5.493561 0c-3.555542 0 -5.333313 2.2050476 -5.333313 6.6151657c0.18310547 4.4101105 1.9608765 6.615158 5.333313 6.615158l5.493561 0l0 51.319016c0 7.6909943 2.2966309 13.039581 6.889862 16.045792l0 -0.13734436c2.4415588 1.4954681 4.974701 2.6399689 7.5994263 3.4334717c2.6246948 0.79351807 5.432495 1.1902771 8.423462 1.1902771l4.646637 0c3.479248 0 5.218872 -2.1974335 5.218872 -6.59227c0.18310547 -4.3185577 -1.5565186 -6.477829 -5.218872 -6.477829l-3.662384 0c-3.3724365 0 -5.5775146 -0.6561737 -6.6151733 -1.9685364c-1.0223999 -1.3123474 -1.5335999 -3.1893158 -1.5335999 -5.63089l0 -51.181686l11.673798 0c3.4640198 0 5.1960144 -2.2050476 5.1960144 -6.615158c0.19836426 -4.410118 -1.5336304 -6.6151657 -5.1960144 -6.6151657l-11.673798 0l0 -15.038628c0 -4.501663 -2.5789185 -6.7525024 -7.736786 -6.7525024z" fill-rule="evenodd"/><path fill="#1c4587" d="m432.71576 102.53589c3.4640198 0 5.9208374 0.9613724 7.3705444 2.8841248c1.4649353 1.9227448 2.1974182 4.0514984 2.1974182 6.386261l0 39.66809c0 2.2432098 -0.7324829 4.3490753 -2.1974182 6.3175964c-1.449707 1.9685211 -3.9065552 2.9527893 -7.3705444 2.9527893l-17.442047 0c-3.4639893 0 -5.928467 -0.9842682 -7.3934326 -2.9527893c-1.4496765 -1.9685211 -2.17453 -4.0743866 -2.17453 -6.3175964l0 -39.66809c0 -2.3347626 0.7248535 -4.463516 2.17453 -6.386261c1.4649658 -1.9227524 3.9294434 -2.8841248 7.3934326 -2.8841248zm-19.982819 -13.230324c-2.4263306 0 -4.9594727 0.518837 -7.5994263 1.5565109c-2.6246948 1.0224075 -5.104431 2.3347626 -7.439209 3.9370499l0.1373291 0c-2.4415588 1.785408 -4.3185425 4.104912 -5.63089 6.9585114c-1.3123474 2.8535995 -1.9685364 6.157364 -1.9685364 9.911301l0 39.942772c0 7.782547 2.533142 13.4592285 7.5994263 17.030045c2.4415894 1.8617096 4.928955 3.2198334 7.462097 4.0743866c2.533142 0.83929443 5.0128784 1.2589417 7.439209 1.2589417l22.500702 0c4.9747314 0 9.949432 -1.777771 14.924194 -5.3333282c5.0510254 -3.662384 7.576538 -9.339066 7.576538 -17.030045l0 -39.942772c0 -3.7539368 -0.65618896 -7.057701 -1.9685364 -9.911301c-1.3123474 -2.8535995 -3.1817017 -5.1731033 -5.6080017 -6.9585114l0.1373291 0c-2.4415894 -1.6022873 -4.9518433 -2.9146423 -7.5307617 -3.9370499c-2.5789185 -1.037674 -5.0891724 -1.5565109 -7.5307617 -1.5565109z" fill-rule="evenodd"/><path fill="#38761d" d="m97.00093 280.14374c-6.135849 0 -11.310654 1.9204102 -15.524429 5.7611694c-4.1952972 3.8193054 -7.651329 10.342194 -10.368103 19.568604l0 -15.641998c0 -2.2315063 -0.62836456 -4.0982666 -1.885109 -5.6002502c-1.2382584 -1.523407 -3.3358994 -2.2851257 -6.292942 -2.2851257c-2.8461418 0 -4.897583 0.76171875 -6.1543274 2.2851257c-1.2382545 1.5019836 -1.8573875 3.368744 -1.8573875 5.6002502l0 65.27161c0 2.2315063 0.6468544 4.1089783 1.9405518 5.6323853c1.312191 1.523468 3.4468002 2.2851562 6.4038277 2.2851562c3.0679207 0 5.2487297 -0.76168823 6.5424385 -2.2851562c1.3121948 -1.5234375 1.968277 -3.4009094 1.968277 -5.6323853l0 -18.377777c0 -6.200989 0.5636902 -12.037262 1.6910553 -17.508759c1.1458588 -5.471466 2.6243744 -10.21344 4.4355545 -14.225861c1.8296661 -4.0338745 3.844139 -7.2309265 6.043442 -9.591187c2.2177734 -2.3817139 4.463272 -3.5725403 6.7364883 -3.5725403c2.6243668 0 4.527954 1.287384 5.7107773 3.8622131c1.2013016 2.574829 1.8019409 7.0914917 1.8019409 13.549957l0 45.863953c0 2.2315063 0.6468582 4.1089783 1.9405518 5.6323853c1.3121948 1.523468 3.4468002 2.2851562 6.4038315 2.2851562c3.0679169 0 5.248726 -0.76168823 6.5424423 -2.2851562c1.3121872 -1.5234375 1.968277 -3.4009094 1.968277 -5.6323853l0 -18.184662c0 -6.458496 0.5914078 -12.423492 1.7742157 -17.894958c1.2013016 -5.4714966 2.7629929 -10.21347 4.685051 -14.225891c1.9405594 -4.0338745 4.1306076 -7.1987305 6.57016 -9.494629c2.43956 -2.3173218 4.9622803 -3.4759827 7.568161 -3.4759827c7.281708 0 10.922546 6.7266846 10.922546 20.180115c0 3.8193054 -0.28645325 7.778076 -0.85939026 11.876343c-0.57292175 4.076782 -1.3399048 7.960449 -2.3009338 11.6510315c-0.96102905 3.6905823 -2.0422058 7.048584 -3.2434998 10.073975c-1.1828156 3.0254211 -2.402588 5.535858 -3.6593323 7.5313416c-0.9055786 1.3088684 -1.5062256 2.328064 -1.8019409 3.0576172c-0.27722168 0.7295227 -0.41583252 1.4161377 -0.41583252 2.059845c0 1.3303223 0.53596497 2.5855408 1.6078949 3.7656555c1.0904083 1.1801147 2.3748627 1.7702026 3.8533783 1.7702026c1.1273651 0 2.1992798 -0.20385742 3.2157745 -0.61151123c1.0349579 -0.38623047 2.1715698 -1.2981567 3.4098358 -2.7357483c2.6243591 -3.0254211 5.036194 -6.748169 7.235489 -11.168274c2.2177734 -4.420105 4.1490936 -9.097687 5.7939453 -14.032745c1.6633301 -4.956543 2.9755096 -9.902313 3.936554 -14.837402c0.96102905 -4.9565125 1.4415436 -9.473175 1.4415436 -13.549957c0 -3.6905823 -0.4527893 -7.145111 -1.3583832 -10.363647c-0.9055939 -3.2399902 -2.2732239 -6.083008 -4.10289 -8.529083c-1.8111725 -2.4460754 -4.1121216 -4.355713 -6.902817 -5.7289734c-2.772232 -1.3946838 -6.0896454 -2.092041 -9.9522705 -2.092041c-6.1358643 0 -11.421555 1.7809143 -15.857101 5.342743c-4.417076 3.5618591 -8.446045 9.494659 -12.086884 17.798431c-0.22177887 -7.5098877 -1.8666306 -13.238831 -4.9345474 -17.18689c-3.0679245 -3.969513 -7.2632217 -5.9542847 -12.585884 -5.9542847z" fill-rule="evenodd"/><path fill="#38761d" d="m233.94522 291.827c5.3226624 0 9.54567 1.7487183 12.669052 5.2461853c3.1233673 3.497467 4.6850433 8.142853 4.6850433 13.936188c0 4.9994507 -0.94255066 9.805756 -2.8276672 14.418976c-1.8666229 4.61322 -4.361618 8.700745 -7.4849854 12.262573c-3.104889 3.5618286 -6.764221 6.437042 -10.977997 8.625641c-4.1952972 2.1671143 -8.677048 3.250702 -13.445267 3.250702c-5.5629272 0 -9.850616 -1.673645 -12.863098 -5.0209045c-3.0124817 -3.3687134 -4.5187225 -8.153564 -4.5187225 -14.354614c0 -4.892151 0.87786865 -9.644806 2.633606 -14.258026c1.774231 -4.61322 4.2230225 -8.690033 7.34639 -12.230377c3.1233673 -3.5618591 6.7826996 -6.4263306 10.977982 -8.593475c4.1952972 -2.1885986 8.79718 -3.2828674 13.805664 -3.2828674zm5.960266 -11.683258c-7.836136 0 -15.302643 1.6843567 -22.399536 5.0531006c-7.096878 3.3687134 -13.371338 7.7888184 -18.823364 13.260284c-5.4520416 5.4714966 -9.767471 11.608154 -12.946274 18.409943c-3.1788177 6.780365 -4.768219 13.5928955 -4.768219 20.437622c0 8.046295 2.2917023 14.408234 6.875107 19.085815c4.601883 4.6776123 12.077637 7.016388 22.427261 7.016388c7.8176575 0 15.191757 -1.9740295 22.122314 -5.9220886c6.9305573 -3.969513 12.955505 -9.312256 18.074875 -16.028229l0 13.260315c0 2.2315063 0.6468506 4.1089783 1.9405518 5.632416c1.3121796 1.5019531 3.502243 2.2529602 6.57016 2.2529602c2.938568 0 5.0639343 -0.7510071 6.3760986 -2.2529602c1.3121948 -1.5234375 1.9682922 -3.4009094 1.9682922 -5.632416l0 -37.39923c0 -1.8452759 0.30493164 -3.883667 0.91482544 -6.1151733c0.62838745 -2.2315063 0.9425659 -4.473755 0.9425659 -6.726715c0 -7.252411 -2.3286743 -13.120819 -6.9859924 -17.605316c-4.638855 -4.4844666 -12.068405 -6.726715 -22.288666 -6.726715z" fill-rule="evenodd"/><path fill="#38761d" d="m299.8406 238.81793c-3.4005737 0 -5.895569 0.8260956 -7.4849854 2.4782715c-1.5894165 1.6521606 -2.3840942 3.5940094 -2.3840942 5.8255157l0 7.5313416c0 2.2315216 0.79467773 4.173355 2.3840942 5.8255157c1.5894165 1.6521912 4.0844116 2.4782715 7.4849854 2.4782715c3.2897034 0 5.7569885 -0.8260803 7.4018555 -2.4782715c1.6633301 -1.6521606 2.494995 -3.5939941 2.494995 -5.8255157l0 -7.5313416c0 -2.2315063 -0.83166504 -4.17334 -2.494995 -5.8255157c-1.644867 -1.6521759 -4.112152 -2.4782715 -7.4018555 -2.4782715zm0 42.130463c-2.9385376 0 -5.091614 0.76171875 -6.459259 2.2851257c-1.3676147 1.5019836 -2.0514526 3.3794556 -2.0514526 5.632416l0 65.85095c0 2.2315063 0.6838379 4.1089783 2.0514526 5.632416c1.3676453 1.5019531 3.5207214 2.2529602 6.459259 2.2529602c3.0679321 0 5.2857056 -0.7510071 6.653351 -2.2529602c1.3676147 -1.5234375 2.051422 -3.4009094 2.051422 -5.632416l0 -65.85095c0 -2.2529602 -0.6838074 -4.130432 -2.051422 -5.632416c-1.3676453 -1.523407 -3.5854187 -2.2851257 -6.653351 -2.2851257z" fill-rule="evenodd"/><path fill="#38761d" d="m340.88898 221.82414c-2.938568 0 -5.0916443 0.76171875 -6.4592896 2.2851562c-1.3676147 1.5019684 -2.051422 3.3794403 -2.051422 5.632416l0 124.975174c0 2.2315063 0.6838074 4.1089783 2.051422 5.632416c1.3676453 1.5019531 3.5207214 2.2529602 6.4592896 2.2529602c3.0679321 0 5.2857056 -0.7510071 6.6533203 -2.2529602c1.3676147 -1.5234375 2.0514526 -3.4009094 2.0514526 -5.632416l0 -124.975174c0 -2.2529755 -0.6838379 -4.1304474 -2.0514526 -5.632416c-1.3676147 -1.5234375 -3.5853882 -2.2851562 -6.6533203 -2.2851562z" fill-rule="evenodd"/><path fill="#38761d" d="m402.03592 280.14374c-1.1273804 0 -2.1808167 0.20385742 -3.1603394 0.61154175c-0.96102905 0.38619995 -2.060669 1.3088684 -3.2989502 2.7679138c-3.7517395 3.8193054 -7.2170105 8.0355835 -10.395813 12.648804c-3.1788025 4.6131897 -5.8771057 9.2907715 -8.094879 14.032745c-2.2177734 4.7419434 -3.9550476 9.462433 -5.2117615 14.161499c-1.2382812 4.677582 -1.8573914 8.990387 -1.8573914 12.938446c0 7.5098877 2.5781555 13.7430725 7.734497 18.699615c5.1748047 4.9350586 12.927765 7.402588 23.258911 7.402588c8.409088 0 15.93103 -2.1671448 22.565887 -6.501404c6.6533203 -4.3557434 12.308655 -10.953705 16.965973 -19.793915l0 31.02655c0 5.943512 -0.91482544 11.3828125 -2.7445068 16.317902c-1.8111877 4.9565125 -4.333893 9.172791 -7.5681458 12.648773c-3.234253 3.497467 -7.041443 6.2332153 -11.421539 8.207245c-4.3616333 1.9954834 -9.157593 2.993225 -14.387848 2.993225c-3.5114746 0 -6.320648 -0.49353027 -8.427551 -1.4805298c-2.1068726 -0.9869995 -3.7886963 -2.2100525 -5.0454407 -3.669098c-1.2382507 -1.4590759 -2.1992798 -3.0147095 -2.8830872 -4.66687c-0.66534424 -1.6307068 -1.3399048 -3.1755981 -2.0237427 -4.634674c-0.6838074 -1.4375916 -1.5708923 -2.6606445 -2.661316 -3.669098c-1.0719299 -0.98703 -2.6243591 -1.4805298 -4.657318 -1.4805298c-2.3841248 0 -4.407837 1.0835571 -6.071167 3.250702c-1.644867 2.1885986 -2.4672852 5.0638123 -2.4672852 8.625641c0 5.793335 2.3563843 10.76059 7.069153 14.901764c4.7127686 4.162628 11.726501 6.243927 21.041168 6.243927c8.298187 0 16.051147 -1.6843567 23.258911 -5.05307c7.207794 -3.34729 13.472992 -7.724457 18.795654 -13.131592c5.341156 -5.4071045 9.573395 -11.468658 12.696777 -18.184631c3.123352 -6.715973 4.6850586 -13.442688 4.6850586 -20.180145c0 -1.5663147 -0.17559814 -3.0790405 -0.5267334 -4.538086c-0.33267212 -1.4590759 -0.49899292 -3.2399902 -0.49899292 -5.3427734l0 -65.46469c0 -2.2315063 -0.6560974 -4.0982666 -1.9682922 -5.6002502c-1.2937012 -1.523407 -3.4190674 -2.2851257 -6.3760986 -2.2851257c-3.0494385 0 -5.230255 0.76171875 -6.54245 2.2851257c-1.3121643 1.5019836 -1.9682617 3.368744 -1.9682617 5.6002502l0 17.41217c0 6.458496 -0.9702759 12.391327 -2.9108276 17.798431c-1.9220886 5.407135 -4.4447937 10.095428 -7.5681763 14.064941c-3.123352 3.948059 -6.7549744 7.0485535 -10.894806 9.301514c-4.139862 2.2315369 -8.427551 3.34729 -12.863098 3.34729c-5.4520264 0 -9.684296 -1.6843872 -12.696777 -5.0531006c-2.993988 -3.3687134 -4.4909973 -8.475433 -4.4909973 -15.32016c0 -2.6391907 0.39736938 -5.6002197 1.1920471 -8.883118c0.79470825 -3.3043213 1.8943481 -6.7695923 3.2989502 -10.395813c1.4230652 -3.6261902 3.1880493 -7.2523804 5.2949524 -10.878601c2.1068726 -3.6262207 4.5187073 -7.1558533 7.2354736 -10.588928c0.9055786 -1.0513916 1.4692688 -1.941864 1.6910706 -2.6713867c0.24023438 -0.7295227 0.36038208 -1.4161377 0.36038208 -2.059845c0 -1.3303223 -0.54519653 -2.6177368 -1.6356201 -3.8622437c-1.0718994 -1.2659302 -2.3471375 -1.8989258 -3.825653 -1.8989258z" fill-rule="evenodd"/></g></svg>